<svg xmlns="http://www.w3.org/2000/svg" version="1.1" xmlns:xlink="http://www.w3.org/1999/xlink" width="1000" height="1000"><style>
    #light-icon {
      display: inline;
    }
    #dark-icon {
      display: none;
    }

    @media (prefers-color-scheme: dark) {
      #light-icon {
        display: none;
      }
      #dark-icon {
        display: inline;
      }
    }
  </style><g id="light-icon"><svg xmlns="http://www.w3.org/2000/svg" version="1.1" xmlns:xlink="http://www.w3.org/1999/xlink" width="1000" height="1000"><g><g transform="matrix(1.953125,0,0,1.953125,0,0)"><svg xmlns="http://www.w3.org/2000/svg" version="1.1" xmlns:xlink="http://www.w3.org/1999/xlink" width="512" height="512"><svg width="512" height="512" viewBox="0 0 512 512" version="1.1" id="svg1" inkscape:version="1.4.2 (ebf0e940d0, 2025-05-08)" sodipodi:docname="T6.svg" xmlns:inkscape="http://www.inkscape.org/namespaces/inkscape" xmlns:sodipodi="http://sodipodi.sourceforge.net/DTD/sodipodi-0.dtd" xmlns="http://www.w3.org/2000/svg" xmlns:svg="http://www.w3.org/2000/svg">
  <sodipodi:namedview id="namedview1" pagecolor="#ffffff" bordercolor="#666666" borderopacity="1.0" inkscape:showpageshadow="2" inkscape:pageopacity="0.0" inkscape:pagecheckerboard="0" inkscape:deskcolor="#d1d1d1" inkscape:document-units="px" inkscape:zoom="1.4142136" inkscape:cx="238.29498" inkscape:cy="251.73001" inkscape:window-width="1256" inkscape:window-height="1034" inkscape:window-x="0" inkscape:window-y="0" inkscape:window-maximized="0" inkscape:current-layer="layer1"></sodipodi:namedview>
  <defs id="defs1">
    <inkscape:path-effect effect="fillet_chamfer" id="path-effect2" is_visible="true" lpeversion="1" nodesatellites_param="F,0,0,1,0,0,0,1 @ F,0,0,1,0,0,0,1 @ F,0,0,1,0,16,0,1 @ F,0,0,1,0,16,0,1" radius="16" unit="px" method="auto" mode="F" chamfer_steps="1" flexible="false" use_knot_distance="true" apply_no_radius="true" apply_with_radius="true" only_selected="true" hide_knots="false"></inkscape:path-effect>
  </defs>
  <g inkscape:label="Layer 1" inkscape:groupmode="layer" id="layer1">
    <path id="rect1" style="fill:#000000;fill-opacity:1;stroke-width:3.40806;stroke-linejoin:round" d="m 48,32 c -8.864,0 -16,7.136 -16,16 v 110.40559 c 0,8.864 7.136,16 16,16 H 200 V 228 v 84 84 68 c 0,8.83656 7.16344,16 16,16 h 80 c 8.83656,0 16,-7.16344 16,-16 v -68 -84 -84 -53.59441 h 152 c 8.864,0 16,-7.136 16,-16 V 48 c 0,-8.864 -7.136,-16 -16,-16 z" sodipodi:nodetypes="ssssccccssssccccsssss"></path>
    <rect style="fill:#dd0000;fill-opacity:1;stroke-width:2.66667;stroke-linejoin:round" id="rect2" width="84" height="56" x="116" y="32"></rect>
    <rect style="fill:#8500ef;fill-opacity:1;stroke-width:2.66667;stroke-linejoin:round" id="rect2-9" width="84" height="56" x="32" y="32"></rect>
    <rect style="fill:#547200;fill-opacity:1;stroke-width:2.66667;stroke-linejoin:round" id="rect2-5" width="84" height="56" x="312" y="32"></rect>
    <rect style="fill:#f69900;fill-opacity:1;stroke-width:3.07921;stroke-linejoin:round" id="rect2-5-4" width="112" height="56" x="200" y="32"></rect>
    <rect style="fill:#005ef8;fill-opacity:1;stroke-width:2.66667;stroke-linejoin:round" id="rect2-5-2" width="84" height="56" x="396" y="32"></rect>
  </g>
</svg></svg></g></g></svg></g><g id="dark-icon"><svg xmlns="http://www.w3.org/2000/svg" version="1.1" xmlns:xlink="http://www.w3.org/1999/xlink" width="1000" height="1000"><g clip-path="url(#SvgjsClipPath1088)"><rect width="1000" height="1000" fill="#ffffff"></rect><g transform="matrix(1.953125,0,0,1.953125,0,0)"><svg xmlns="http://www.w3.org/2000/svg" version="1.1" xmlns:xlink="http://www.w3.org/1999/xlink" width="512" height="512"><svg width="512" height="512" viewBox="0 0 512 512" version="1.1" id="svg1" inkscape:version="1.4.2 (ebf0e940d0, 2025-05-08)" sodipodi:docname="T6.svg" xmlns:inkscape="http://www.inkscape.org/namespaces/inkscape" xmlns:sodipodi="http://sodipodi.sourceforge.net/DTD/sodipodi-0.dtd" xmlns="http://www.w3.org/2000/svg" xmlns:svg="http://www.w3.org/2000/svg">
  <sodipodi:namedview id="namedview1" pagecolor="#ffffff" bordercolor="#666666" borderopacity="1.0" inkscape:showpageshadow="2" inkscape:pageopacity="0.0" inkscape:pagecheckerboard="0" inkscape:deskcolor="#d1d1d1" inkscape:document-units="px" inkscape:zoom="1.4142136" inkscape:cx="238.29498" inkscape:cy="251.73001" inkscape:window-width="1256" inkscape:window-height="1034" inkscape:window-x="0" inkscape:window-y="0" inkscape:window-maximized="0" inkscape:current-layer="layer1"></sodipodi:namedview>
  <defs id="defs1">
    <inkscape:path-effect effect="fillet_chamfer" id="path-effect2" is_visible="true" lpeversion="1" nodesatellites_param="F,0,0,1,0,0,0,1 @ F,0,0,1,0,0,0,1 @ F,0,0,1,0,16,0,1 @ F,0,0,1,0,16,0,1" radius="16" unit="px" method="auto" mode="F" chamfer_steps="1" flexible="false" use_knot_distance="true" apply_no_radius="true" apply_with_radius="true" only_selected="true" hide_knots="false"></inkscape:path-effect>
  <clipPath id="SvgjsClipPath1088"><rect width="1000" height="1000" x="0" y="0" rx="100" ry="100"></rect></clipPath></defs>
  <g inkscape:label="Layer 1" inkscape:groupmode="layer" id="layer1">
    <path id="rect1" style="fill:#000000;fill-opacity:1;stroke-width:3.40806;stroke-linejoin:round" d="m 48,32 c -8.864,0 -16,7.136 -16,16 v 110.40559 c 0,8.864 7.136,16 16,16 H 200 V 228 v 84 84 68 c 0,8.83656 7.16344,16 16,16 h 80 c 8.83656,0 16,-7.16344 16,-16 v -68 -84 -84 -53.59441 h 152 c 8.864,0 16,-7.136 16,-16 V 48 c 0,-8.864 -7.136,-16 -16,-16 z" sodipodi:nodetypes="ssssccccssssccccsssss"></path>
    <rect style="fill:#dd0000;fill-opacity:1;stroke-width:2.66667;stroke-linejoin:round" id="rect2" width="84" height="56" x="116" y="32"></rect>
    <rect style="fill:#8500ef;fill-opacity:1;stroke-width:2.66667;stroke-linejoin:round" id="rect2-9" width="84" height="56" x="32" y="32"></rect>
    <rect style="fill:#547200;fill-opacity:1;stroke-width:2.66667;stroke-linejoin:round" id="rect2-5" width="84" height="56" x="312" y="32"></rect>
    <rect style="fill:#f69900;fill-opacity:1;stroke-width:3.07921;stroke-linejoin:round" id="rect2-5-4" width="112" height="56" x="200" y="32"></rect>
    <rect style="fill:#005ef8;fill-opacity:1;stroke-width:2.66667;stroke-linejoin:round" id="rect2-5-2" width="84" height="56" x="396" y="32"></rect>
  </g>
</svg></svg></g></g></svg></g></svg>